<svg width="856" height="1025" viewBox="0 0 856 1025" fill="none" xmlns="http://www.w3.org/2000/svg">
<path d="M-17.8102 202.608C-106.567 32.5203 -183.408 -112.006 -188.571 -118.57L-197.949 -130.5H-366.285C-510.311 -130.5 -536.273 -129.343 -546.058 -122.497C-552.353 -118.097 -557.5 -110.213 -557.5 -104.98C-557.5 -99.7424 -486.47 40.3842 -399.659 206.422C-257.259 478.775 -242.322 509.651 -246.995 522.008C-249.842 529.538 -320.872 667.022 -404.837 827.529C-488.801 988.036 -557.5 1123.43 -557.5 1128.42C-557.5 1133.41 -553.264 1141.32 -548.086 1145.99C-539.727 1153.55 -519.643 1154.5 -368.735 1154.5C-213.426 1154.5 -198.098 1153.72 -190.656 1145.51C-186.178 1140.56 -109.14 995.962 -19.4727 824.183L143.567 511.851L-17.8102 202.608Z" fill="#EEF5FF"/>
<path d="M672.659 511.753C672.659 496.95 356.261 -109.647 342.354 -121.505C332.785 -129.667 316.474 -130.5 166.246 -130.5C24.7258 -130.5 -0.984253 -129.338 -10.7586 -122.497C-17.0535 -118.097 -22.2008 -109.919 -22.2008 -104.322C-22.2008 -98.7295 48.4432 40.8265 134.786 205.795C221.129 370.763 291.773 508.556 291.773 512C291.773 515.444 221.129 653.237 134.786 818.205C48.4432 983.173 -22.2008 1122.73 -22.2008 1128.32C-22.2008 1133.92 -17.0535 1142.1 -10.7586 1146.5C-0.984253 1153.34 24.7258 1154.5 166.246 1154.5C316.474 1154.5 332.785 1153.67 342.359 1145.51C356.251 1133.65 672.659 526.567 672.659 511.753Z" fill="#EEF5FF"/>
</svg>
